<svg xmlns:mydata="http://www.w3.org/2000/svg" mydata:contrastcolor="11111f" mydata:template="Contrast" mydata:presentation="2.5" mydata:layouttype="undefined" mydata:specialfontid="undefined" mydata:id1="331" mydata:id2="332" mydata:companyname="Morpheus" mydata:companytagline="" version="1.1" xmlns="http://www.w3.org/2000/svg" xmlns:xlink="http://www.w3.org/1999/xlink" viewBox="0 0 550 470" class="svg-primary-tile" style="transform: translate(-50%, -50%); width: 70%; height: auto; top: 50%; left: 50%;"><g fill="#ffb81c" fill-rule="none" stroke="none" stroke-width="1" stroke-linecap="butt" stroke-linejoin="miter" stroke-miterlimit="10" stroke-dasharray="" stroke-dashoffset="0" font-family="none" font-weight="none" font-size="none" text-anchor="none" style="mix-blend-mode: normal"><g data-paper-data="{&quot;isGlobalGroup&quot;:true,&quot;bounds&quot;:{&quot;x&quot;:65,&quot;y&quot;:118.38038618569155,&quot;width&quot;:420,&quot;height&quot;:233.23922762861693}}"><g data-paper-data="{&quot;isPrimaryText&quot;:true}" fill-rule="nonzero"><path d="M117.39426,299.22535v52.39426l-8.68605,-6.80986v-27.16997l-17.51108,13.61973l-17.44159,-13.61973v27.16997l-8.75554,6.80986v-52.39426l26.19713,20.42959z" data-paper-data="{&quot;glyphName&quot;:&quot;M&quot;,&quot;glyphIndex&quot;:0,&quot;firstGlyphOfWord&quot;:true,&quot;word&quot;:1}" fill="#ffffff"></path><path d="M155.26544,299.43382c3.47442,0 6.77512,0.67172 9.9021,2.01516c3.12698,1.34344 5.89493,3.18489 8.30387,5.52433c2.40893,2.33944 4.31986,5.09582 5.73279,8.26912c1.41293,3.1733 2.1194,6.58982 2.1194,10.24954c0,3.47442 -0.67172,6.77512 -2.01516,9.9021c-1.34344,3.12698 -3.18489,5.89493 -5.52433,8.30387c-2.33944,2.40893 -5.09582,4.31986 -8.26912,5.73279c-3.1733,1.41293 -6.58982,2.1194 -10.24954,2.1194c-3.47442,0 -6.7867,-0.67172 -9.93684,-2.01516c-3.15014,-1.34344 -5.9181,-3.19647 -8.30387,-5.55907c-2.38577,-2.36261 -4.28512,-5.13056 -5.69805,-8.30387c-1.41293,-3.1733 -2.1194,-6.56665 -2.1194,-10.18005c0,-3.52075 0.67172,-6.84461 2.01516,-9.97159c1.34344,-3.12698 3.18489,-5.87177 5.52433,-8.23438c2.33944,-2.36261 5.09582,-4.23879 8.26912,-5.62856c3.1733,-1.38977 6.58982,-2.13098 10.24954,-2.22363zM155.26544,342.86407c2.26995,0 4.45884,-0.45167 6.56665,-1.35502c2.10782,-0.90335 3.96084,-2.14256 5.55907,-3.71763c1.59823,-1.57507 2.87219,-3.41651 3.82186,-5.52433c0.94967,-2.10782 1.42451,-4.36619 1.42451,-6.77512c0,-2.31628 -0.45167,-4.52833 -1.35502,-6.63614c-0.90335,-2.10782 -2.14256,-3.96084 -3.71763,-5.55907c-1.57507,-1.59823 -3.41651,-2.87219 -5.52433,-3.82186c-2.10782,-0.94967 -4.36619,-1.42451 -6.77512,-1.42451c-2.31628,0 -4.52833,0.45167 -6.63614,1.35502c-2.10782,0.90335 -3.96084,2.14256 -5.55907,3.71763c-1.59823,1.57507 -2.87219,3.42809 -3.82186,5.55907c-0.94967,2.13098 -1.42451,4.40093 -1.42451,6.80986c0,2.36261 0.45167,4.57465 1.35502,6.63614c0.90335,2.06149 2.14256,3.87977 3.71763,5.45484c1.57507,1.57507 3.41651,2.82586 5.52433,3.75237c2.10782,0.92651 4.38935,1.43609 6.84461,1.52875z" data-paper-data="{&quot;glyphName&quot;:&quot;O&quot;,&quot;glyphIndex&quot;:1,&quot;word&quot;:1}" fill="#ffffff"></path><path d="M233.71786,351.55013h-9.65889l-11.53508,-21.26345h-19.31778v-8.61656h25.08532c1.06549,-0.04633 2.01516,-0.32428 2.84902,-0.83386c0.74121,-0.41693 1.41293,-1.08865 2.01516,-2.01516c0.60223,-0.92651 0.90335,-2.24679 0.90335,-3.96084c0,-1.66772 -0.30112,-2.96484 -0.90335,-3.89135c-0.60223,-0.92651 -1.27395,-1.59823 -2.01516,-2.01516c-0.83386,-0.50958 -1.78354,-0.78754 -2.84902,-0.83386h-25.08532v-8.68605h25.08532c2.68689,0.13898 5.09582,0.78754 7.22679,1.94568c0.88019,0.50958 1.76037,1.13498 2.64056,1.87619c0.88019,0.74121 1.65614,1.64456 2.32786,2.71005c0.67172,1.06549 1.21605,2.32786 1.63298,3.78712c0.41693,1.45926 0.6254,3.16172 0.6254,5.1074c0,3.15014 -0.50958,5.73279 -1.52875,7.74796c-1.01916,2.01516 -2.16572,3.59023 -3.43968,4.72521c-1.27395,1.13498 -2.47842,1.91093 -3.6134,2.32786c-1.13498,0.41693 -1.81828,0.6254 -2.04991,0.6254z" data-paper-data="{&quot;glyphName&quot;:&quot;R&quot;,&quot;glyphIndex&quot;:2,&quot;word&quot;:1}" fill="#ffffff"></path><path d="M271.65853,299.50331c2.68689,0.13898 5.09582,0.76437 7.22679,1.87619c0.88019,0.46326 1.76037,1.05391 2.64056,1.77195c0.88019,0.71805 1.65614,1.60981 2.32786,2.6753c0.67172,1.06549 1.21605,2.31628 1.63298,3.75237c0.41693,1.43609 0.6254,3.10382 0.6254,5.00317c0,1.94568 -0.20847,3.63656 -0.6254,5.07265c-0.41693,1.43609 -0.96126,2.69847 -1.63298,3.78712c-0.67172,1.08865 -1.44768,2.00358 -2.32786,2.74479c-0.88019,0.74121 -1.76037,1.34344 -2.64056,1.8067c-2.13098,1.15814 -4.53991,1.8067 -7.22679,1.94568h-17.51108v21.6109h-8.68605v-30.36644h25.57173c0.04633,0 0.41693,-0.03474 1.11181,-0.10423c0.69488,-0.06949 1.42451,-0.3127 2.18888,-0.72963c0.76437,-0.41693 1.47084,-1.06549 2.1194,-1.94568c0.64856,-0.88019 0.97284,-2.15414 0.97284,-3.82186c0,-1.6214 -0.33586,-2.86061 -1.00758,-3.71763c-0.67172,-0.85702 -1.40135,-1.494 -2.18888,-1.91093c-0.92651,-0.50958 -1.992,-0.78754 -3.19647,-0.83386h-25.57173v-8.68605h26.19713z" data-paper-data="{&quot;glyphName&quot;:&quot;P&quot;,&quot;glyphIndex&quot;:3,&quot;word&quot;:1}" fill="#ffffff"></path><path d="M334.81568,351.55013v-23.97896h-31.87954v23.97896h-2.91074v-27.02831h34.79028v-25.01851h2.91074v52.04682z" data-paper-data="{&quot;glyphName&quot;:&quot;H&quot;,&quot;glyphIndex&quot;:4,&quot;fontStyleEffect&quot;:true,&quot;word&quot;:1}" fill="#ffffff"></path><path d="M354.57944,324.48573h28.86869v3.05342h-28.86869zM354.57944,299.43382h31.85271v2.91463h-31.85271zM354.57944,348.6355h31.85271v2.91463h-31.85271z" data-paper-data="{&quot;glyphName&quot;:&quot;E&quot;,&quot;glyphIndex&quot;:5,&quot;fontStyleEffect&quot;:true,&quot;word&quot;:1}" fill="#ffffff"></path><path d="M421.85773,351.55013c-3.88617,0 -7.05525,-0.60143 -9.50724,-1.80429c-2.45199,-1.20286 -4.37194,-2.70644 -5.75986,-4.51073c-1.38792,-1.80429 -2.34789,-3.78208 -2.87993,-5.93335c-0.53204,-2.15127 -0.79805,-4.19845 -0.79805,-6.14154v-33.7264h2.91463v33.7264c0,2.63704 0.38168,4.92711 1.14503,6.87019c0.76335,1.94308 1.83899,3.55076 3.22691,4.82301c1.38792,1.27226 3.06498,2.22067 5.0312,2.84523c1.96622,0.62456 4.17532,0.93684 6.62731,0.93684c2.40572,0 4.60326,-0.31228 6.59261,-0.93684c1.98935,-0.62456 3.67798,-1.58454 5.0659,-2.87993c1.38792,-1.29539 2.46355,-2.94933 3.22691,-4.96181c0.76335,-2.01248 1.14503,-4.40664 1.14503,-7.18247v-33.24063h2.91463v33.7264c0,1.94308 -0.26602,3.99026 -0.79805,6.14154c-0.53204,2.15127 -1.49201,4.12906 -2.87993,5.93335c-1.38792,1.80429 -3.30787,3.30787 -5.75986,4.51073c-2.45199,1.20286 -5.62107,1.80429 -9.50724,1.80429z" data-paper-data="{&quot;glyphName&quot;:&quot;U&quot;,&quot;glyphIndex&quot;:6,&quot;fontStyleEffect&quot;:true,&quot;word&quot;:1}" fill="#ffffff"></path><path d="M474.66222,325.52666c1.52638,0.41629 2.92557,0.91352 4.19756,1.49169c1.27199,0.57818 2.35896,1.34137 3.26091,2.28958c0.90195,0.94821 1.60733,2.13925 2.11612,3.57313c0.50879,1.43388 0.76319,3.21466 0.76319,5.34234c0,2.26645 -0.4741,4.25537 -1.42231,5.96677c-0.94821,1.7114 -2.19707,3.11059 -3.74658,4.19756c-1.54951,1.08697 -3.31873,1.89642 -5.30765,2.42834c-1.98892,0.53192 -4.03567,0.77476 -6.14023,0.7285c-2.10456,-0.04625 -4.17443,-0.35847 -6.20961,-0.93664c-2.03518,-0.57818 -3.86221,-1.44544 -5.48111,-2.60179l1.94267,-1.94267c1.38762,0.78632 2.93713,1.38762 4.64853,1.80391c1.7114,0.41629 3.43436,0.64756 5.16889,0.69381c1.73453,0.04625 3.4228,-0.11564 5.06482,-0.48567c1.64202,-0.37003 3.11059,-0.97134 4.4057,-1.80391c1.29511,-0.83257 2.32427,-1.91954 3.08746,-3.26091c0.76319,-1.34137 1.14479,-2.93713 1.14479,-4.7873c0,-2.45147 -0.52036,-4.37101 -1.56107,-5.75863c-1.04072,-1.38762 -2.38208,-2.48616 -4.0241,-3.2956c-1.64202,-0.80945 -3.49218,-1.457 -5.55049,-1.94267c-2.05831,-0.48567 -4.10505,-1.05228 -6.14023,-1.69984c-1.48013,-0.41629 -2.78681,-1.05228 -3.92003,-1.90798c-1.13322,-0.8557 -2.093,-1.85016 -2.87932,-2.98339c-0.78632,-1.13322 -1.38762,-2.37052 -1.80391,-3.71189c-0.41629,-1.34137 -0.62443,-2.72899 -0.62443,-4.16287c0,-2.26645 0.4741,-4.24381 1.42231,-5.93208c0.94821,-1.68827 2.19707,-3.08746 3.74658,-4.19756c1.54951,-1.1101 3.31873,-1.93111 5.30765,-2.46303c1.98892,-0.53192 4.0241,-0.77476 6.10554,-0.7285c2.08143,0.04625 4.13974,0.37003 6.17492,0.97134c2.03518,0.6013 3.86221,1.457 5.48111,2.5671l-1.94267,1.94267c-1.38762,-0.78632 -2.92557,-1.39919 -4.61384,-1.8386c-1.68827,-0.43941 -3.39967,-0.68225 -5.1342,-0.7285c-1.73453,-0.04625 -3.4228,0.11564 -5.06482,0.48567c-1.64202,0.37003 -3.09902,0.97134 -4.37101,1.80391c-1.27199,0.83257 -2.28958,1.91954 -3.05277,3.26091c-0.76319,1.34137 -1.14479,2.96026 -1.14479,4.85668c0,2.49772 0.46254,4.44039 1.38762,5.82801c0.92508,1.38762 2.13925,2.49772 3.64251,3.33029c1.50326,0.83257 3.21466,1.49169 5.1342,1.97736c1.91954,0.48567 3.89691,1.02915 5.93208,1.63046z" data-paper-data="{&quot;glyphName&quot;:&quot;S&quot;,&quot;glyphIndex&quot;:7,&quot;lastGlyphOfWord&quot;:true,&quot;fontStyleEffect&quot;:true,&quot;word&quot;:1}" fill="#ffffff"></path></g><g data-paper-data="{&quot;fillRule&quot;:&quot;evenodd&quot;,&quot;isIcon&quot;:&quot;true&quot;,&quot;iconType&quot;:&quot;icon&quot;,&quot;rawIconId&quot;:&quot;1371441&quot;,&quot;selectedEffects&quot;:{&quot;container&quot;:&quot;&quot;,&quot;transformation&quot;:&quot;&quot;,&quot;pattern&quot;:&quot;&quot;},&quot;isDetailed&quot;:&quot;false&quot;,&quot;bounds&quot;:{&quot;x&quot;:199.78877083754537,&quot;y&quot;:118.38038618569155,&quot;width&quot;:150.42245832490931,&quot;height&quot;:150.4224583249093},&quot;iconStyle&quot;:&quot;standalone&quot;,&quot;suitableAsStandaloneIcon&quot;:true}" fill-rule="evenodd"><path d="M245.22952,165.3874c16.14597,0 30.76139,6.64679 41.28344,17.33431c2.64367,-5.7593 4.15542,-12.14285 4.15542,-18.90058c0,-25.09611 -20.34464,-45.44074 -45.43886,-45.44074c-25.09611,0 -45.44074,20.34464 -45.44074,45.44074c0,6.75773 1.51175,13.1394 4.15542,18.90058c10.52205,-10.68752 25.13747,-17.33431 41.28532,-17.33431zM304.77048,118.38039c-6.75773,0 -13.1394,1.51175 -18.90622,4.15542c10.69316,10.52205 17.33995,25.13747 17.33995,41.28532c0,16.14597 -6.64679,30.76139 -17.33995,41.28344c5.76494,2.64367 12.14849,4.15542 18.90622,4.15542c25.09611,0 45.44074,-20.34464 45.44074,-45.43886c0,-25.09611 -20.34464,-45.44074 -45.44074,-45.44074zM246.79579,223.3621c0,-16.14597 6.64679,-30.76139 17.33431,-41.28344c-5.7593,-2.64367 -12.14285,-4.15542 -18.90058,-4.15542c-25.09611,0 -45.44074,20.34464 -45.44074,45.43886c0,25.09611 20.34464,45.44074 45.44074,45.44074c6.75773,0 13.1394,-1.51175 18.90058,-4.15542c-10.68752,-10.52205 -17.33431,-25.13747 -17.33431,-41.28532zM304.77048,221.79583c-16.14597,0 -30.76139,-6.64679 -41.28344,-17.33995c-2.64367,5.76494 -4.15542,12.14849 -4.15542,18.90622c0,25.09611 20.34464,45.44074 45.43886,45.44074c25.09611,0 45.44074,-20.34464 45.44074,-45.44074c0,-6.75773 -1.51175,-13.1394 -4.15542,-18.90622c-10.52205,10.69316 -25.13747,17.33995 -41.28532,17.33995z" data-paper-data="{&quot;isPathIcon&quot;:true}" fill="#fc5404"></path></g></g></g></svg>